<svg width="27" height="30" viewBox="0 0 27 30" fill="none" xmlns="http://www.w3.org/2000/svg">
<path d="M7.55681 11.7855C7.4663 11.7402 7.36756 11.7137 7.26654 11.7077C7.16553 11.7016 7.06432 11.716 6.96902 11.75C6.87373 11.7841 6.78631 11.8371 6.71203 11.9058C6.63775 11.9745 6.57815 12.0576 6.53681 12.15L0.247316 26.253C-0.753184 28.497 1.46982 30.8235 3.55032 29.712L12.4063 24.984C13.0963 24.6165 13.9063 24.6165 14.5948 24.984L23.4508 29.712C25.5313 30.8235 27.7543 28.497 26.7538 26.253L24.3958 20.967C24.1132 20.3323 23.6191 19.8154 22.9978 19.5045L7.55681 11.7855Z" fill="#FFFCFC"/>
<path d="M8.4163 9.699C8.24358 9.61287 8.11072 9.46346 8.04534 9.28187C7.97997 9.10027 7.98712 8.90046 8.0653 8.724L11.2918 1.4895C12.1768 -0.4965 14.8243 -0.4965 15.7093 1.4895L21.6613 14.8365C21.7238 14.9776 21.7412 15.1345 21.7112 15.2858C21.6812 15.4372 21.6053 15.5756 21.4937 15.6822C21.3822 15.7888 21.2405 15.8585 21.0879 15.8816C20.9354 15.9047 20.7794 15.8802 20.6413 15.8115L8.4163 9.699Z" fill="#A1E00D"/>
</svg>
